<?xml version="1.0" encoding="UTF-8"?>
<svg xmlns="http://www.w3.org/2000/svg" xmlns:xlink="http://www.w3.org/1999/xlink" width="751.22pt" height="348.07pt" viewBox="0 0 751.22 348.07" version="1.1">
<defs>
<clipPath id="clip1">
  <path d="M 0 0.00390625 L 730.320313 0.00390625 L 730.320313 348.070313 L 0 348.070313 Z M 0 0.00390625 "/>
</clipPath>
<clipPath id="clip2">
  <path d="M 0 0.00390625 L 730.320313 0.00390625 L 730.320313 348 L 0 348 Z M 0 0.00390625 "/>
</clipPath>
<clipPath id="clip3">
  <path d="M 729 153 L 751.21875 153 L 751.21875 175 L 729 175 Z M 729 153 "/>
</clipPath>
</defs>
<g id="surface1">
<g clip-path="url(#clip1)" clip-rule="nonzero">
<path style=" stroke:none;fill-rule:nonzero;fill:rgb(100%,100%,100%);fill-opacity:1;" d="M 73.925781 348.070313 C 72.109375 348.070313 70.179688 348 68.171875 347.824219 L 79.792969 347.824219 C 77.835938 347.988281 75.875 348.070313 73.925781 348.070313 M 651.9375 347.9375 C 650.957031 347.9375 649.996094 347.898438 649.054688 347.824219 L 654.917969 347.824219 C 653.910156 347.898438 652.917969 347.9375 651.9375 347.9375 M 730.320313 290.589844 L 730.320313 290.019531 C 730.320313 290.066406 730.320313 290.117188 730.320313 290.167969 L 730.320313 290.4375 C 730.320313 290.488281 730.320313 290.539063 730.320313 290.589844 M 0.00390625 71.527344 C 0 71.382813 0 71.238281 0 71.097656 L 0 70.910156 C 0 70.765625 0 70.621094 0.00390625 70.476563 L 0.00390625 71.527344 M 538.117188 0.00390625 L 538.117188 0.00390625 "/>
</g>
<g clip-path="url(#clip2)" clip-rule="nonzero">
<path style=" stroke:none;fill-rule:nonzero;fill:rgb(0%,50.19989%,77.2995%);fill-opacity:1;" d="M 654.917969 347.824219 L 649.054688 347.824219 C 641.789063 347.261719 635.578125 344.539063 630.949219 339.875 C 624.414063 333.289063 621.03125 322.816406 621.136719 309.589844 L 621.164063 306.28125 C 605.972656 334.351563 586.457031 346.542969 569 346.542969 C 556.613281 346.542969 538.988281 340.039063 525.445313 309.082031 L 523.585938 304.800781 L 520.917969 308.632813 C 505.976563 330.105469 471.621094 347.566406 444.328125 347.566406 C 426.949219 347.566406 405.273438 340.9375 400.644531 309.382813 L 399.914063 304.402344 L 396.269531 307.875 C 383.925781 319.582031 351.148438 346.808594 313.449219 346.808594 C 308.558594 346.808594 303.6875 346.347656 298.824219 345.417969 C 282.460938 343.117188 262.699219 329.617188 256.605469 308.25 L 255.1875 303.269531 L 252.035156 307.363281 C 233.238281 331.800781 208.242188 346.964844 186.785156 346.964844 C 165.351563 346.964844 150.238281 331.632813 144.234375 303.78125 L 142.675781 296.5625 L 139.351563 303.15625 C 126.613281 328.410156 118.636719 335.175781 101.15625 342.667969 C 94.6875 345.429688 87.273438 347.207031 79.792969 347.824219 L 68.171875 347.824219 C 57.121094 346.875 43.757813 342.835938 33.949219 330.636719 C 19.984375 313.257813 17.28125 284.585938 25.914063 245.421875 C 38.78125 187.8125 52.265625 142.191406 63.089844 105.527344 C 64.472656 100.875 65.808594 96.371094 67.078125 92.023438 L 67.152344 91.703125 C 72.21875 60.390625 72.398438 45.066406 52.339844 39.84375 L 51.84375 39.769531 C 51.296875 39.738281 50.761719 39.726563 50.234375 39.726563 C 37.277344 39.726563 28.167969 49.277344 25.242188 65.9375 L 25.210938 66.148438 C 25.007813 68.332031 24.925781 70.660156 24.84375 73.121094 C 24.382813 86.007813 23.386719 94.460938 14.015625 94.574219 C 5.136719 94.574219 1.941406 85.382813 0.832031 79.910156 C 0.3125 77.355469 0.03125 74.527344 0.00390625 71.527344 L 0.00390625 70.476563 C 0.191406 50.835938 10.875 24.1875 34.828125 14.023438 C 47.523438 8.636719 59.488281 5.90625 70.351563 5.90625 C 87.316406 5.90625 101.414063 12.574219 111.15625 25.203125 C 124.527344 42.542969 128.257813 69.074219 121.121094 96.269531 C 115.476563 121.035156 108.34375 145.761719 100.789063 171.933594 C 94.648438 193.25 88.289063 215.296875 81.996094 239.808594 C 75.144531 270.285156 75.011719 287.21875 81.570313 296.414063 C 84.734375 300.851563 89.539063 303.457031 95.847656 304.167969 C 96.578125 304.253906 97.328125 304.292969 98.066406 304.292969 C 128.734375 304.285156 148.210938 235.414063 161.734375 175.425781 C 162.335938 172.785156 162.847656 170.515625 163.285156 168.65625 C 169.53125 141.433594 174.40625 123.679688 180.058594 103.128906 C 186.386719 80.363281 192.402344 57.515625 198.105469 34.585938 C 199.824219 25.636719 204.265625 13.8125 215.628906 8.273438 C 221.492188 5.414063 227.421875 3.984375 233.871094 3.984375 C 237.636719 3.984375 241.574219 4.472656 245.78125 5.441406 C 254.617188 7.519531 259.65625 14.273438 258.335938 22.273438 C 257.621094 26.550781 249.832031 55.371094 241.585938 85.882813 C 233.140625 117.121094 224.410156 149.414063 221.265625 162.746094 C 217.617188 178.175781 215.566406 185.800781 213.757813 192.542969 C 211.332031 201.527344 209.242188 209.300781 204.289063 232.097656 C 198.144531 257.726563 192.753906 290.738281 201.992188 302.449219 C 204.253906 305.324219 207.355469 306.839844 210.972656 306.839844 C 211.933594 306.832031 212.890625 306.738281 213.832031 306.554688 C 238.394531 301.792969 248.46875 275.398438 248.882813 274.277344 L 249.03125 273.859375 L 249.039063 273.421875 C 249.886719 230.035156 268.0625 203.183594 283.167969 188.320313 C 301.144531 170.617188 324.996094 160.039063 346.96875 160.039063 C 360.875 160.039063 372.765625 164.410156 380.453125 172.339844 C 387.585938 179.691406 391.007813 189.675781 390.621094 202.019531 C 389.777344 229.535156 372.777344 239.308594 358.480469 239.308594 C 351.230469 239.308594 344.453125 236.75 340.363281 232.46875 C 337.496094 229.460938 336.070313 225.71875 336.238281 221.65625 C 337.828125 208.019531 346.410156 201.8125 353.71875 201.8125 C 358.492188 201.8125 362.941406 204.296875 366.261719 208.792969 L 370.132813 214.054688 L 370.949219 207.566406 C 371.710938 201.511719 370.417969 196.375 367.199219 192.71875 C 364.117188 189.242188 359.414063 187.320313 353.953125 187.320313 C 343.4375 187.320313 332.351563 194.164063 325.71875 204.753906 C 305.472656 237.085938 299 273.519531 309.988281 293.339844 C 315.078125 302.546875 323.410156 307.417969 334.070313 307.417969 C 341.695313 307.417969 350.371094 304.890625 359.855469 299.945313 C 361.621094 299.015625 363.570313 298.035156 365.628906 297.003906 C 375.882813 291.855469 388.65625 285.449219 398.539063 276.425781 L 399.171875 275.839844 L 399.339844 275 C 419.347656 172.511719 459.507813 66.683594 479.460938 35.960938 C 488.488281 22.527344 508.113281 0.00390625 538.117188 0.00390625 C 539.289063 0.00390625 540.453125 0.0351563 541.617188 0.101563 C 555.082031 0.402344 564.386719 4.546875 569.289063 12.414063 C 577.902344 26.261719 573.738281 52.332031 557.246094 87.828125 C 548.671875 106.527344 516.179688 172.25 458.027344 233.101563 L 457.621094 233.515625 L 457.445313 234.074219 C 456.804688 235.976563 441.96875 280.808594 451.285156 298.726563 C 453.214844 302.433594 456.027344 304.859375 459.660156 305.933594 C 461.652344 306.519531 463.71875 306.8125 465.796875 306.8125 C 465.820313 306.8125 465.84375 306.8125 465.867188 306.8125 C 487.714844 306.804688 514.800781 277.503906 515.945313 276.253906 L 516.644531 275.5 L 516.621094 274.460938 C 516.210938 243.957031 531.558594 208.425781 555.730469 183.929688 C 572 167.433594 589.78125 158.347656 605.808594 158.347656 C 622.3125 158.347656 636.410156 168.269531 646.570313 187.03125 L 649.785156 192.972656 L 651.398438 186.421875 C 655.605469 169.359375 674.25 157.902344 689.03125 157.902344 C 695.292969 157.902344 700.210938 160.011719 702.886719 163.835938 C 706.378906 168.84375 706.261719 176.820313 702.5625 186.914063 L 702.488281 187.113281 C 701.632813 190.253906 693.003906 211.96875 685.398438 231.132813 C 677.769531 250.34375 670.566406 268.492188 668.957031 273.320313 C 663.335938 287.691406 662.28125 297.128906 665.746094 302.199219 C 666.953125 303.96875 669.320313 306.066406 673.746094 306.066406 C 680.808594 306.066406 690.222656 300.59375 696.421875 295.183594 C 709.78125 283.53125 717.917969 281.101563 722.398438 281.101563 C 725.867188 281.101563 728.246094 282.582031 729.464844 285.515625 L 729.472656 285.515625 C 730.003906 286.792969 730.289063 288.328125 730.320313 290.019531 L 730.320313 290.589844 C 730.234375 295.542969 728.007813 301.667969 723.28125 306.449219 C 700.660156 328.011719 697.070313 331.113281 678.753906 340.316406 C 670.597656 344.703125 662.425781 347.277344 654.917969 347.824219 M 619.824219 187.3125 C 615.644531 187.3125 611.179688 188.992188 606.53125 192.308594 C 600.835938 195.601563 578.867188 215.859375 569.632813 259.378906 C 565.265625 279.570313 562.921875 300.875 578.574219 305.730469 L 578.835938 305.785156 C 580.3125 306.082031 581.785156 306.238281 583.214844 306.238281 C 593.582031 306.238281 602.566406 298.929688 610.714844 283.886719 L 610.832031 283.644531 C 613.175781 277.972656 633.765625 228.046875 635.023438 222.417969 C 637.730469 210.375 636.265625 199.339844 631.097656 192.882813 C 628.179688 189.242188 624.273438 187.3125 619.824219 187.3125 M 548.09375 34.347656 C 548.058594 34.347656 548.019531 34.351563 547.984375 34.351563 C 542.371094 34.351563 535.339844 39.914063 528.179688 50 L 528.066406 50.175781 C 496.914063 102.398438 478.878906 170.460938 478.222656 174.886719 L 476.558594 186.179688 L 482.96875 176.746094 C 487.730469 169.730469 492.992188 162.726563 498.5625 155.316406 C 515.878906 132.261719 535.507813 106.140625 551.574219 65.109375 C 556.582031 52.304688 557.5 42.535156 554.136719 37.59375 C 552.789063 35.566406 550.523438 34.347656 548.09375 34.347656 "/>
</g>
<g clip-path="url(#clip3)" clip-rule="nonzero">
<path style=" stroke:none;fill-rule:nonzero;fill:rgb(0%,50.19989%,77.2995%);fill-opacity:1;" d="M 740.511719 153.15625 C 734.679688 153.15625 729.75 157.640625 729.75 163.710938 C 729.75 169.863281 734.679688 174.355469 740.511719 174.355469 C 746.289063 174.355469 751.222656 169.863281 751.222656 163.710938 C 751.222656 157.640625 746.289063 153.15625 740.511719 153.15625 Z M 740.511719 172.582031 C 735.675781 172.582031 731.878906 168.824219 731.878906 163.710938 C 731.878906 158.71875 735.675781 154.925781 740.511719 154.925781 C 745.300781 154.925781 749.085938 158.71875 749.085938 163.710938 C 749.085938 168.824219 745.3125 172.589844 740.511719 172.589844 Z M 745.394531 161.109375 C 745.394531 158.71875 743.960938 157.640625 741.078125 157.640625 L 736.414063 157.640625 L 736.414063 169.863281 L 738.269531 169.863281 L 738.269531 164.566406 L 740.40625 164.566406 L 743.648438 169.863281 L 745.703125 169.863281 L 742.21875 164.484375 C 744.015625 164.257813 745.386719 163.300781 745.386719 161.109375 Z M 738.269531 162.984375 L 738.269531 159.21875 L 740.78125 159.21875 C 742.070313 159.21875 743.464844 159.480469 743.464844 161 C 743.464844 162.882813 742.050781 162.984375 740.496094 162.984375 L 738.269531 162.984375 "/>
</g>
</g>
</svg>
